<svg width="20" height="25" viewBox="0 0 20 25" fill="none" xmlns="http://www.w3.org/2000/svg">
<path d="M2.5 25C1.8125 25 1.22396 24.7552 0.734375 24.2656C0.244792 23.776 0 23.1875 0 22.5V2.5C0 1.8125 0.244792 1.22396 0.734375 0.734375C1.22396 0.244792 1.8125 0 2.5 0H20V2.5H17.5V5C17.5 5.35417 17.3802 5.65104 17.1406 5.89062C16.901 6.13021 16.6042 6.25 16.25 6.25H6.25C5.89583 6.25 5.59896 6.13021 5.35938 5.89062C5.11979 5.65104 5 5.35417 5 5V2.5H2.5V22.5H7.5625C6.77083 21.9375 6.14583 21.224 5.6875 20.3594C5.22917 19.4948 5 18.5417 5 17.5V11.25H17.5V17.5C17.5 18.5417 17.2708 19.4948 16.8125 20.3594C16.3542 21.224 15.7292 21.9375 14.9375 22.5H20V25H2.5ZM11.25 21.25C12.2917 21.25 13.1771 20.8854 13.9062 20.1562C14.6354 19.4271 15 18.5417 15 17.5V13.75H7.5V17.5C7.5 18.5417 7.86458 19.4271 8.59375 20.1562C9.32292 20.8854 10.2083 21.25 11.25 21.25ZM11.25 10C11.6042 10 11.901 9.88021 12.1406 9.64062C12.3802 9.40104 12.5 9.10417 12.5 8.75C12.5 8.39583 12.3802 8.09896 12.1406 7.85938C11.901 7.61979 11.6042 7.5 11.25 7.5C10.8958 7.5 10.599 7.61979 10.3594 7.85938C10.1198 8.09896 10 8.39583 10 8.75C10 9.10417 10.1198 9.40104 10.3594 9.64062C10.599 9.88021 10.8958 10 11.25 10Z" fill="#00173A"/>
</svg>
